<?xml version="1.0" encoding="UTF-8" standalone="no"?>
<svg
   role="img"
   viewBox="0 0 24 24"
   version="1.1"
   id="svg780"
   sodipodi:docname="freecad.svg"
   inkscape:version="1.2.1 (9c6d41e410, 2022-07-14, custom)"
   xmlns:inkscape="http://www.inkscape.org/namespaces/inkscape"
   xmlns:sodipodi="http://sodipodi.sourceforge.net/DTD/sodipodi-0.dtd"
   xmlns="http://www.w3.org/2000/svg"
   xmlns:svg="http://www.w3.org/2000/svg">
  <sodipodi:namedview
     id="namedview782"
     pagecolor="#ffffff"
     bordercolor="#666666"
     borderopacity="1.0"
     inkscape:showpageshadow="2"
     inkscape:pageopacity="0.0"
     inkscape:pagecheckerboard="0"
     inkscape:deskcolor="#d1d1d1"
     showgrid="false"
     inkscape:zoom="33.58333333333334"
     inkscape:cx="12"
     inkscape:cy="12"
     inkscape:window-width="1920"
     inkscape:window-height="1022"
     inkscape:window-x="0"
     inkscape:window-y="0"
     inkscape:window-maximized="1"
     inkscape:current-layer="svg780" />
  <title
     id="title748">FreeCAD</title>
  <defs
     id="defs760">
    <linearGradient
       gradientTransform="matrix(6.907699999999999,0,0,6.907699999999999,-4099.999999999999,1055.2)"
       gradientUnits="userSpaceOnUse"
       id="a"
       x1="-146.74"
       x2="-157.32"
       y1="58.262"
       y2="26.521">
      <stop
         offset="0"
         stop-color="#204a87"
         id="stop750" />
      <stop
         offset="1"
         stop-color="#729fcf"
         id="stop752" />
    </linearGradient>
    <linearGradient
       gradientTransform="matrix(0.3402550413606753,0,0,0.3402550413606753,74.3447131975158,-1.02537932110004)"
       gradientUnits="userSpaceOnUse"
       id="b"
       x1="-206.7"
       x2="-211.4"
       y1="68.842"
       y2="7.711">
      <stop
         offset="0"
         stop-color="#a40000"
         id="stop755" />
      <stop
         offset="1"
         stop-color="#ef2929"
         id="stop757" />
    </linearGradient>
  </defs>
  <g
     stroke-linecap="round"
     stroke-linejoin="round"
     id="g770"
     transform="matrix(1.000061961365278,0,0,1.000061961365278,-1.017071026499644e-6,2.08879197717473e-7)"
     style="stroke-width:16.089">
    <path
       d="m -5050.100000000004,1219.6 -49.724000000001,28.528 -21.956999999999,-7.62 -20.949000000002,-53.542 -32.952,1.734 -15.031999999999,55.363 -21.037,10.073 -52.469,-22.952 -22.165,24.628 28.528,49.724 -7.796,21.89 -53.538999999999,20.953 1.915999999999,33.016 55.364,15.032 10.073,21.037 -23.129999999999,52.405 24.629,22.162 49.723999999999,-28.528 22.067,7.862 20.772000000001,53.472 33.196,-1.854 14.855999999999,-55.427 21.037000000001,-10.073 52.58,23.192 22.162999999998,-24.627 -28.529999999999,-49.724 7.684000000001,-22.131 53.475999999998,-20.776 -1.672999999999,-33.128 -55.427,-14.856 -10.075000000001,-21.037 23.020000000002,-52.646 z m -74.47,81.539 10.207,5.922 8.841000000002,8.018 7.081999999999,9.569 5.092000000001,10.638 3.01,11.468 0.488999999999,11.755 -1.703000000002,11.747 -3.874,11.156 -6.162999999998,10.319 -7.777,8.732 -9.569000000002,7.078 -10.637999999999,5.093 -11.469000000001,3.01 -11.818,0.668 -11.750999999999,-1.703 -11.151999999999,-3.873 -10.320000000002,-6.163 -8.669,-7.954 -7.145000000001,-9.392 -5.092,-10.638 -2.919999999999,-11.645 -0.668,-11.819 1.702000000001,-11.748 3.873999999999,-11.155 6.099000000001,-10.143 7.841999999999,-8.908 9.568,-7.078 10.638,-5.093 11.645999999999,-2.919 11.754000000001,-0.488 11.748000000001,1.702 11.154999999999,3.874 z"
       style="color:#000000;fill:url(#a);fill-rule:evenodd;stroke-width:16.089;-inkscape-stroke:none"
       transform="matrix(0.04972,0,0,0.04972,271.286,-52.222)"
       id="path762" />
    <path
       d="m -5143.152,1178.932 -32.953000000003,1.734 a 8.044999999999998,8.044999999999998 0 0 0 -7.339999999997,5.926 l -14.067,51.806 -14.39,6.891 -49.094,-21.475 a 8.044999999999998,8.044999999999998 0 0 0 -9.203000000003,1.989 l -22.165999999997,24.627 a 8.044999999999998,8.044999999999998 0 0 0 -0.998000000001,9.384 l 26.685000000001,46.512 -5.322,14.945 -50.123,19.616 a 8.044999999999998,8.044999999999998 0 0 0 -5.099999999999,7.957 l 1.916,33.017 a 8.044999999999998,8.044999999999998 0 0 0 5.921999999999,7.297 l 51.809000000001,14.067 6.882999999999,14.377 -21.635000000002,49.02 a 8.044999999999998,8.044999999999998 0 0 0 1.978,9.226 l 24.630000000002,22.162 a 8.044999999999998,8.044999999999998 0 0 0 9.382000000001,0.998 l 46.512,-26.684 15.111,5.385 19.439999999997,50.041 a 8.044999999999998,8.044999999999998 0 0 0 7.947,5.12 l 33.195,-1.856 a 8.044999999999998,8.044999999999998 0 0 0 7.322,-5.95 l 13.899000000002,-51.851 14.360999999998,-6.877 49.197000000002,21.7 a 8.044999999999998,8.044999999999998 0 0 0 9.226999999998,-1.98 l 22.162000000003,-24.626 a 8.044999999999998,8.044999999999998 0 0 0 0.997999999997,-9.385 l -26.705,-46.545 5.262000000003,-15.156 50.008,-19.428 a 8.044999999999998,8.044999999999998 0 0 0 5.12,-7.904 l -1.671000000003,-33.13 a 8.044999999999998,8.044999999999998 0 0 0 -5.951,-7.364 l -51.854,-13.897 -6.884999999997,-14.377 21.542999999998,-49.271 a 8.044999999999998,8.044999999999998 0 0 0 -1.992000000001,-9.205 l -24.629,-22.149 a 8.044999999999998,8.044999999999998 0 0 0 -9.382999999997,-0.996 l -46.544,26.703 -14.993000000003,-5.201 -19.596999999998,-50.09 A 8.044999999999998,8.044999999999998 0 0 0 -5143.152,1178.932 Z m -4.953000000003,16.373 18.832000000002,48.134 a 8.044999999999998,8.044999999999998 0 0 0 4.854999999998,4.67 l 21.957000000001,7.62 A 8.044999999999998,8.044999999999998 0 0 0 -5095.821,1255.105 l 44.672999999999,-25.628 15.979999999998,14.37 -20.692999999998,47.325 a 8.044999999999998,8.044999999999998 0 0 0 0.115,6.7 l 10.076,21.036 a 8.044999999999998,8.044999999999998 0 0 0 5.171999999997,4.295 l 49.771000000002,13.34 1.084,21.478 -48.062,18.672 a 8.044999999999998,8.044999999999998 0 0 0 -4.686000000002,4.862 l -7.683,22.13 a 8.044999999999998,8.044999999999998 0 0 0 0.623000000002,6.641 l 25.629,44.672 -14.367000000001,15.965 -47.252000000002,-20.84 a 8.044999999999998,8.044999999999998 0 0 0 -6.720999999997,0.104 l -21.037000000002,10.074000000001 a 8.044999999999998,8.044999999999998 0 0 0 -4.296999999998,5.172000000001 l -13.348,49.801999999999 -21.55,1.203999999999 -18.657000000002,-48.026 a 8.044999999999998,8.044999999999998 0 0 0 -4.799,-4.666 l -22.065999999998,-7.861 a 8.044999999999998,8.044999999999998 0 0 0 -6.703000000003,0.6 l -44.67,25.628 -15.966999999998,-14.367 20.775999999999,-47.076 a 8.044999999999998,8.044999999999998 0 0 0 -0.103999999999,-6.72 l -10.071999999999,-21.038 a 8.044999999999998,8.044999999999998 0 0 0 -5.149,-4.289 l -49.775,-13.516 -1.242,-21.406 48.100999999998,-18.824 a 8.044999999999998,8.044999999999998 0 0 0 4.647,-4.793 l 7.795000000001,-21.89 a 8.044999999999998,8.044999999999998 0 0 0 -0.600000000002,-6.702 l -25.629,-44.672 14.383000000003,-15.98 47.15,20.625 a 8.044999999999998,8.044999999999998 0 0 0 6.698,-0.115 l 21.036999999998,-10.073 a 8.044999999999998,8.044999999999998 0 0 0 4.289000000002,-5.148 l 13.505999999998,-49.742 z m 0.316000000003,92.25 -11.754,0.488 a 8.044999999999998,8.044999999999998 0 0 0 -1.621,0.234 l -11.647,2.92 a 8.044999999999998,8.044999999999998 0 0 0 -1.517000000003,0.547 l -10.636999999998,5.092 A 8.044999999999998,8.044999999999998 0 0 0 -5186.277,1297.625 l -9.567,7.078 a 8.044999999999998,8.044999999999998 0 0 0 -1.254,1.152 l -7.843,8.909 a 8.044999999999998,8.044999999999998 0 0 0 -0.856,1.17 l -6.098000000003,10.142 a 8.044999999999998,8.044999999999998 0 0 0 -0.705,1.506000000001 l -3.875,11.155999999999 A 8.044999999999998,8.044999999999998 0 0 0 -5216.835,1340.223 l -1.703999999999,11.748 a 8.044999999999998,8.044999999999998 0 0 0 -0.07,1.61 l 0.669999999997,11.817 a 8.044999999999998,8.044999999999998 0 0 0 0.228,1.502 L -5214.793,1378.545 a 8.044999999999998,8.044999999999998 0 0 0 0.546999999998,1.517 L -5209.152,1390.702 a 8.044999999999998,8.044999999999998 0 0 0 0.853000000001,1.396 l 7.145,9.392 a 8.044999999999998,8.044999999999998 0 0 0 0.964999999997,1.057 L -5191.521,1410.5 a 8.044999999999998,8.044999999999998 0 0 0 1.312,0.979 l 10.319999999998,6.164 A 8.044999999999998,8.044999999999998 0 0 0 -5178.402,1418.334 l 11.149999999998,3.875 A 8.044999999999998,8.044999999999998 0 0 0 -5165.766,1422.570000000001 l 11.751999999999,1.703 a 8.044999999999998,8.044999999999998 0 0 0 1.609999999998,0.07 l 11.816000000004,-0.667 a 8.044999999999998,8.044999999999998 0 0 0 1.587999999999,-0.25 l 11.469000000001,-3.012 a 8.044999999999998,8.044999999999998 0 0 0 1.430999999997,-0.523 l 10.640000000002,-5.094 a 8.044999999999998,8.044999999999998 0 0 0 1.310000000001,-0.79 l 9.567999999997,-7.077 a 8.044999999999998,8.044999999999998 0 0 0 1.223,-1.116 l 7.777,-8.732 a 8.044999999999998,8.044999999999998 0 0 0 0.900000000001,-1.227 l 6.161999999998,-10.318 a 8.044999999999998,8.044999999999998 0 0 0 0.694000000002,-1.486 l 3.872999999998,-11.156 a 8.044999999999998,8.044999999999998 0 0 0 0.363000000001,-1.485 l 1.701,-11.748 a 8.044999999999998,8.044999999999998 0 0 0 0.077,-1.488 l -0.489,-11.754 a 8.044999999999998,8.044999999999998 0 0 0 -0.255999999998,-1.71 l -3.010000000001,-11.466 a 8.044999999999998,8.044999999999998 0 0 0 -0.524999999999,-1.431 l -5.092000000001,-10.64 a 8.044999999999998,8.044999999999998 0 0 0 -0.79,-1.312 l -7.079999999999,-9.568 a 8.044999999999998,8.044999999999998 0 0 0 -1.063000000001,-1.174 l -8.841999999997,-8.017 a 8.044999999999998,8.044999999999998 0 0 0 -1.367000000002,-0.998 l -10.207000000001,-5.922 a 8.044999999999998,8.044999999999998 0 0 0 -1.751999999997,-0.147 l 0.372999999997,-0.465 -11.154,-3.875 a 8.044999999999998,8.044999999999998 0 0 0 -1.487,-0.361 l -11.748000000003,-1.703 a 8.044999999999998,8.044999999999998 0 0 0 -1.487999999997,-0.076 z m -0.078,16.105 10.248,1.486 9.781000000003,3.399 8.700999999997,5.047 7.621,6.912 6.153,8.31 4.430000000003,9.254 2.592999999998,9.887 0.421999999999,10.14 -1.483999999998,10.247 -3.351999999999,9.652 -5.350000000002,8.957 -6.716000000001,7.54 -8.281999999997,6.126 -9.253000000003,4.43 -9.947999999999,2.611 -10.203000000001,0.576 -10.190999999999,-1.476 -9.649000000003,-3.352 -8.905999999999,-5.318 -7.530999999999,-6.91 -6.212999999999,-8.166 -4.387000000002,-9.166 -2.536999999998,-10.117 -0.58,-10.25 1.477,-10.188 3.346999999998,-9.64 5.292999999999,-8.803 6.795,-7.72 8.262000000003,-6.11 9.214999999999,-4.413 10.059999999999,-2.521 z"
       style="color:#000000;fill:#000137;fill-rule:evenodd;-inkscape-stroke:none"
       transform="matrix(0.04972,0,0,0.04972,271.286,-52.222)"
       id="path764" />
    <path
       d="m -5154.098,1195.727 -9.850000000003,0.515 a 8.044999999999998,8.044999999999998 0 0 0 -7.34,5.914 L -5184.468,1250.422 l -27.471,12.527 -45.092,-19.6 a 8.044999999999998,8.044999999999998 0 0 0 -9.266,2.087 l -6.476000000001,7.416 a 8.044999999999998,8.044999999999998 0 0 0 -0.931999999998,9.271 l 24.815999999998,43.594 -10.721999999997,27.46 -45.582000000003,18.178 a 8.044999999999998,8.044999999999998 0 0 0 -5.053,7.913 L -5309.672,1369.75 a 8.044999999999998,8.044999999999998 0 0 0 5.906,7.318 l 47.925999999999,13.135 12.844,27.479 -19.840000000001,44.976 a 8.044999999999998,8.044999999999998 0 0 0 2.084,9.32 L -5253.594,1478.195 a 8.044999999999998,8.044999999999998 0 0 0 9.264000000001,0.914 l 42.707,-24.38 29.87,10.466 16.835,45.479 A 8.044999999999998,8.044999999999998 0 0 0 -5147.375,1515.926 h 9.867000000001 a 8.044999999999998,8.044999999999998 0 0 0 7.75,-5.889 l 13.386999999998,-48.127 26.979999999999,-13.48 47.121,20.164 a 8.044999999999998,8.044999999999998 0 0 0 9.038,-1.899 l 6.09,-6.506 a 8.044999999999998,8.044999999999998 0 0 0 1.073999999999,-9.554 L -5050.978,1407.965 l 9.229999999997,-28.893 46.658000000002,-18.552 A 8.044999999999998,8.044999999999998 0 0 0 -4990.021,1352.783 l -0.334,-10.324 a 8.044999999999998,8.044999999999998 0 0 0 -6.043000000001,-7.533 l -47.324999999998,-12.131 -13.617000000002,-27.885 19.875,-46.045 a 8.044999999999998,8.044999999999998 0 0 0 -1.898,-9.07 L -5046.413,1233.217 a 8.044999999999998,8.044999999999998 0 0 0 -9.485000000001,-1.098 l -43.185999999997,24.742 -28.143,-10.12 -19.017,-46.052 A 8.044999999999998,8.044999999999998 0 0 0 -5154.098,1195.727 Z m -3.869,18.724 17.228999999998,41.723 a 8.044999999999998,8.044999999999998 0 0 0 4.713000000002,4.5 l 34.991999999997,12.586 A 8.044999999999998,8.044999999999998 0 0 0 -5094.311,1272.67 l 38.59,-22.11 -17.857000000003,41.37 A 8.044999999999998,8.044999999999998 0 0 0 -5073.42,1298.648 l 16.871000000001,34.547 a 8.044999999999998,8.044999999999998 0 0 0 5.233,4.262 l 42.975999999998,11.016 -42.885000000001,17.052 a 8.044999999999998,8.044999999999998 0 0 0 -4.690999999999,5.028 l -11.479000000001,35.926 A 8.044999999999998,8.044999999999998 0 0 0 -5066.678,1412.982 l 21.529999999999,36.88 -41.340000000002,-17.69 a 8.044999999999998,8.044999999999998 0 0 0 -6.76,0.2 l -33.511999999999,16.743 a 8.044999999999998,8.044999999999998 0 0 0 -4.154000000001,5.041 l -11.915999999999,42.832 -15.149000000001,-40.927 a 8.044999999999998,8.044999999999998 0 0 0 -4.884,-4.8 l -36.903000000001,-12.929 a 8.044999999999998,8.044999999999998 0 0 0 -6.648,0.605 l -37.924,21.649 17.537,-39.754 a 8.044999999999998,8.044999999999998 0 0 0 -0.074,-6.652 l -15.965,-34.159 a 8.044999999999998,8.044999999999998 0 0 0 -5.162000000001,-4.353 l -44.291000000001,-12.137 41.887000000002,-16.703 a 8.044999999999998,8.044999999999998 0 0 0 4.513000000001,-4.547 l 13.386999999999,-34.287 a 8.044999999999998,8.044999999999998 0 0 0 -0.503999999999,-6.904 l -22.506000000001,-39.537 40.448000000001,17.58 a 8.044999999999998,8.044999999999998 0 0 0 6.545,-0.059 l 34.159999999999,-15.578 a 8.044999999999998,8.044999999999998 0 0 0 4.421999999999,-5.201 z"
       style="color:#000000;fill:#729fcf;-inkscape-stroke:none"
       transform="matrix(0.04972,0,0,0.04972,271.286,-52.222)"
       id="path766" />
    <path
       d="m -5150.4,1270.357 c -46.984,0 -85.243,38.26 -85.243,85.243 0,46.983 38.26,85.244 85.243,85.244 46.982999999997,0 85.244,-38.261 85.244,-85.244 0,-46.984 -38.261000000003,-85.243 -85.244,-85.243 z m 0,16.088 c 38.288,0 69.154,30.866 69.154,69.155 0,38.288 -30.866,69.154 -69.154,69.154 -38.289000000002,0 -69.155000000002,-30.866 -69.155000000002,-69.154 0,-38.289 30.866,-69.155 69.155000000002,-69.155 z"
       style="color:#000000;fill:#729fcf;stroke-dashoffset:6;-inkscape-stroke:none"
       transform="matrix(0.04972,0,0,0.04972,271.286,-52.222)"
       id="path768" />
  </g>
  <path
     d="M 0.4164367843851551,0.3967007874657042 V 23.5964957893748 H 5.216404658521016 V 13.99646059494171 H 10.0163725326567 V 9.196492720805885 H 5.216404658521016 V 5.196569215440087 H 13.21635111541406 V 0.3966013413042546 Z"
     style="color:#000000;fill:url(#b);fill-rule:evenodd;stroke-width:0.799995;-inkscape-stroke:none"
     id="path772" />
  <path
     d="M 13.61632357671834,-0.0033711200000255 0.0164146000001892,-0.0032716738385901 V 23.99646825067909 H 5.616377119825245 V 14.39648277932673 H 10.41639471704173 V 8.796520259501598 H 5.616377119825245 V 5.596591399825102 H 13.61632357671834 Z M 12.81637865410966,0.796573802608556 V 4.79654703105507 H 4.816432197216728 V 9.596465182110172 H 9.616350348271794 V 13.59648813363741 H 4.816432197216728 v 9.60003519443307 H 0.8164589687701775 V 0.7966732487699772 Z"
     style="color:#000000;fill:#280000;fill-rule:evenodd;stroke-width:0.799995;-inkscape-stroke:none"
     id="path774" />
  <path
     d="M 12.81677643875548,0.7971704795771898 0.8170059226580972,0.797220202657911 V 23.19692111271627 H 4.816829981862442 V 13.5969356413639 H 9.616847579078864 V 9.596862966755935 H 4.816829981862442 V 4.797044261862276 H 12.81677643875548 Z M 12.01683151614685,1.597214848347214 V 3.997099339253687 H 4.016885059253866 V 10.39690733552597 H 8.816902656470404 V 12.7969409956746 H 4.016885059253866 v 9.60003519443308 H 1.616950845266615 V 1.597314294508656 Z"
     style="color:#000000;fill:#ef2929;stroke-width:0.799995;-inkscape-stroke:none"
     id="path776" />
</svg>
